<svg width="100" height="100" viewBox="0 0 100 100" fill="none" xmlns="http://www.w3.org/2000/svg">
<path d="M100 0.000488281H0V100H100V0.000488281Z" fill="#484EC9"/>
<path d="M67.1746 78.1259C69.1889 81.4148 71.8095 83.8323 76.4444 83.8323C80.3381 83.8323 82.8254 81.8862 82.8254 79.1973C82.8254 75.9751 80.2698 74.8339 75.9841 72.9592L73.6349 71.9513C66.8539 69.0624 62.3492 65.4434 62.3492 57.7926C62.3492 50.745 67.719 45.3799 76.1111 45.3799C82.0857 45.3799 86.3809 47.4592 89.4762 52.9037L82.1587 57.6021C80.5476 54.7132 78.8095 53.5751 76.1111 53.5751C73.3587 53.5751 71.6143 55.3212 71.6143 57.6021C71.6143 60.4212 73.3603 61.5624 77.392 63.3085L79.7413 64.3148C87.7254 67.7386 92.2333 71.2291 92.2333 79.0767C92.2333 87.537 85.5873 92.1719 76.6619 92.1719C67.9349 92.1719 62.2968 88.0132 59.5381 82.5624L67.1746 78.1259ZM33.9793 78.9402C35.4555 81.5592 36.7984 83.7735 40.027 83.7735C43.1143 83.7735 45.0619 82.5656 45.0619 77.8688V45.9164H54.4587V77.9958C54.4587 87.7259 48.7539 92.1545 40.427 92.1545C32.9032 92.1545 28.546 88.2608 26.3301 83.5712L33.9793 78.9402Z" fill="white"/>
</svg>
